<svg viewBox="0 0 28 29" xmlns="http://www.w3.org/2000/svg">
<path d="M2.23244 18.7386C2.23244 16.8625 2.22498 14.9864 2.2399 13.1179C2.2399 12.8368 2.15783 12.7077 1.88925 12.6545C1.59828 12.5938 1.31477 12.5026 1.03127 12.4115C0.374724 12.2064 0.00914997 11.6975 0.00168927 10.9987C-0.00577142 9.78338 -0.00577142 8.56809 0.00168927 7.35279C0.00168927 6.61602 0.389646 6.11471 1.09095 5.91722C2.53833 5.50706 3.97078 5.0969 5.4107 4.71712C5.75389 4.62597 5.85834 4.46646 5.88072 4.13226C5.94041 3.29674 6.04486 2.46882 6.10454 1.6333C6.19407 0.342052 7.49223 -0.485868 8.68594 0.31167C9.7752 1.04085 10.9242 1.67128 12.0433 2.35489C12.2596 2.48401 12.4536 2.4992 12.6998 2.47642C13.3041 2.42325 13.9159 2.43844 14.5277 2.44603C15.035 2.45363 15.5423 2.5068 16.0497 2.51439C16.1616 2.51439 16.2884 2.45363 16.3854 2.39286C17.5567 1.69407 18.7355 1.02566 19.877 0.281288C21.011 -0.463081 22.2943 0.319266 22.3987 1.61052C22.4808 2.56756 22.5703 3.52461 22.6822 4.48165C22.6971 4.60318 22.8314 4.77029 22.9433 4.80827C24.0848 5.16526 25.2263 5.49947 26.3753 5.84127C26.4126 5.84886 26.4499 5.86405 26.4872 5.86405C27.6585 6.03875 27.9942 6.42613 27.9942 7.63383C27.9942 8.73519 27.9942 9.83655 27.9942 10.9379C27.9942 11.7051 27.6287 12.1912 26.905 12.4191C26.5394 12.533 26.0246 12.5482 25.8455 12.7988C25.6516 13.0723 25.7635 13.5736 25.7635 13.9762C25.7635 17.3866 25.7635 20.7894 25.7635 24.1998C25.7635 25.0885 25.4501 25.5291 24.622 25.7873C21.3542 26.8127 18.0864 27.8305 14.8261 28.8559C14.2889 29.023 13.7518 29.0306 13.2146 28.8635C9.90204 27.8305 6.58949 26.7899 3.26948 25.7493C2.58309 25.5367 2.23244 25.0429 2.23244 24.3062C2.23244 22.4604 2.23244 20.5995 2.23244 18.7386ZM24.331 13.1938C24.2117 13.2166 24.1221 13.2318 24.0475 13.2546C20.9886 14.1357 17.9297 15.0168 14.8634 15.8827C14.5948 15.9586 14.5874 16.1029 14.5874 16.3232C14.5948 18.3512 14.5874 20.3716 14.5874 22.3997C14.5874 22.9997 14.3486 23.2884 13.8637 23.2808C13.3936 23.2732 13.1549 22.9921 13.1549 22.4149C13.1549 21.4882 13.1549 20.5691 13.1549 19.6425C13.1549 18.4044 13.1549 17.1663 13.1549 15.8902C10.0065 14.9864 6.86553 14.0825 3.68727 13.171C3.68727 13.3457 3.68727 13.4672 3.68727 13.5888C3.68727 17.0448 3.69474 20.5008 3.67981 23.9568C3.67981 24.2834 3.79172 24.3821 4.06777 24.4733C7.20872 25.4455 10.3348 26.4405 13.4757 27.3976C13.7965 27.4963 14.1994 27.5039 14.5202 27.4052C17.6761 26.4405 20.817 25.4455 23.9655 24.4733C24.249 24.3821 24.3459 24.2682 24.3459 23.9568C24.331 20.5008 24.3385 17.0448 24.3385 13.5888C24.331 13.4672 24.331 13.3381 24.331 13.1938ZM26.5319 7.38317C26.3603 7.42875 26.2186 7.46673 26.0768 7.5047C22.3017 8.60607 18.5341 9.71502 14.7664 10.824C14.274 10.9683 13.7965 10.9835 13.2967 10.8392C9.91696 9.84415 6.54472 8.85672 3.16503 7.86929C2.60547 7.70219 2.04592 7.55028 1.4416 7.37558C1.4416 7.54268 1.4416 7.67181 1.4416 7.79334C1.4416 8.7276 1.45653 9.66945 1.43414 10.6037C1.42668 10.9151 1.51621 11.0367 1.81464 11.1202C5.33609 12.1152 8.85754 13.0951 12.3566 14.1584C13.4906 14.5078 14.5202 14.5003 15.6468 14.1584C19.1458 13.0951 22.6673 12.1152 26.1887 11.1202C26.4573 11.0443 26.5692 10.9379 26.5618 10.6341C26.5394 9.66945 26.5543 8.7124 26.5543 7.74776C26.5543 7.63383 26.5394 7.52749 26.5319 7.38317ZM4.11253 6.60083C4.3662 6.68438 4.50795 6.72995 4.6497 6.77553C7.5743 7.63383 10.4989 8.48454 13.416 9.35803C13.8114 9.47956 14.1845 9.47956 14.5799 9.35803C17.497 8.49213 20.4291 7.63383 23.3462 6.77553C23.4656 6.73755 23.585 6.69197 23.8013 6.61602C23.3537 6.48689 23.0254 6.37296 22.6897 6.297C22.6001 6.27422 22.4659 6.31219 22.4062 6.37296C22.0704 6.70717 21.675 6.80591 21.2199 6.80591C16.5495 6.79831 11.8717 6.79831 7.20126 6.80591C6.71632 6.80591 6.33582 6.63881 6.02247 6.26662C5.96279 6.19826 5.81357 6.14509 5.72404 6.16028C5.21672 6.28181 4.71685 6.43372 4.11253 6.60083ZM17.0643 5.31717C18.5117 5.31717 19.8845 5.31717 21.302 5.31717C21.1528 4.01832 21.1155 2.73467 20.8916 1.40544C19.5935 2.18778 18.3998 2.90177 17.2061 3.63095C17.1389 3.66893 17.0718 3.76007 17.0643 3.82843C17.0568 4.31455 17.0643 4.80827 17.0643 5.31717ZM7.21618 5.31717C8.64118 5.31717 10.0214 5.31717 11.4464 5.31717C11.4464 4.85384 11.4613 4.41329 11.4389 3.98035C11.4315 3.83603 11.327 3.65373 11.2151 3.57778C10.2005 2.94734 9.17089 2.3321 8.14877 1.71686C8.00702 1.62571 7.8578 1.54975 7.59668 1.40544C7.46239 2.74986 7.34302 4.01832 7.21618 5.31717ZM12.9162 5.30958C13.8338 5.30958 14.7142 5.30958 15.5871 5.30958C15.5871 4.83865 15.5871 4.39051 15.5871 3.94237C14.6843 3.94237 13.804 3.94237 12.9162 3.94237C12.9162 4.41329 12.9162 4.84624 12.9162 5.30958Z" />
</svg>
