<svg width="574" height="628" viewBox="0 0 574 628" fill="none" xmlns="http://www.w3.org/2000/svg">
<g clip-path="url(#clip0_537_110)">
<path d="M347.625 285.543C414.157 257.01 444.264 181.524 414.87 116.94C385.476 52.3558 307.713 23.1306 241.181 51.6634C174.649 80.1962 144.542 155.682 173.936 220.266C203.329 284.85 281.092 314.075 347.625 285.543Z" fill="#F7931A"/>
<path d="M341.944 130.919C337.336 114.586 321.563 111.505 302.633 113.055L298.517 90.0119L284.076 92.4488L288.078 114.885C284.281 115.518 280.42 116.248 276.566 116.975L272.542 94.3906L258.097 96.8201L262.21 119.856C259.093 120.441 256.028 121.022 253.033 121.52L253.018 121.448L233.09 124.797L235.767 139.774C235.767 139.774 246.405 137.78 246.261 137.999C252.114 137.018 254.602 139.995 255.668 142.752L260.361 168.999C260.762 168.931 261.289 168.863 261.906 168.834L260.378 169.096L266.945 205.868C267.003 207.695 266.43 210.727 262.338 211.425C262.557 211.55 251.84 213.193 251.84 213.193L251.96 230.42L270.767 227.255C274.263 226.673 277.716 226.153 281.093 225.604L285.263 248.904L299.696 246.47L295.58 223.427C299.556 222.831 303.397 222.215 307.143 221.587L311.234 244.536L325.675 242.099L321.525 218.843C345.577 213.403 361.513 204.603 359.67 182.105C358.193 163.992 348.132 157.485 333.769 156.595C341.413 151.046 345.341 142.871 341.944 130.919ZM330.625 184.149C333.754 201.562 302.674 204.749 292.882 206.406L287.378 175.529C297.176 173.886 327.39 165.987 330.625 184.149ZM316.129 141.719C318.958 157.565 293.008 160.021 284.858 161.393L279.857 133.401C288.007 132.029 313.178 125.191 316.129 141.719Z" fill="white"/>
</g>
<rect y="201.002" width="573.435" height="99.458" rx="2" fill="#7E4C35"/>
<g clip-path="url(#clip1_537_110)">
<path d="M158.645 355.002C233.485 355.002 294.154 299.341 294.154 230.679C294.154 162.018 233.485 106.357 158.645 106.357C83.8053 106.357 23.1357 162.018 23.1357 230.679C23.1357 299.341 83.8053 355.002 158.645 355.002Z" fill="#627EEA"/>
<path d="M162.863 137.438V206.359L226.357 232.389L162.863 137.438Z" fill="white" fill-opacity="0.602"/>
<path d="M162.863 137.438L99.3597 232.389L162.863 206.359V137.438Z" fill="white"/>
<path d="M162.863 277.052V323.882L226.4 243.236L162.863 277.052Z" fill="white" fill-opacity="0.602"/>
<path d="M162.863 323.882V277.044L99.3597 243.236L162.863 323.882Z" fill="white"/>
<path d="M162.863 266.212L226.357 232.389L162.863 206.375V266.212Z" fill="white" fill-opacity="0.2"/>
<path d="M99.3597 232.389L162.863 266.212V206.375L99.3597 232.389Z" fill="white" fill-opacity="0.602"/>
</g>
<g clip-path="url(#clip2_537_110)">
<path d="M376.782 393.501C453.447 393.501 515.596 338.199 515.596 269.981C515.596 201.762 453.447 146.46 376.782 146.46C300.117 146.46 237.967 201.762 237.967 269.981C237.967 338.199 300.117 393.501 376.782 393.501Z" fill="#FAB431"/>
<path fill-rule="evenodd" clip-rule="evenodd" d="M450.527 295.202L414.218 275.817L418.383 260.462L433.886 268.607V240.568L384.087 214.15V275.138L372.244 280.967L437.643 315.475L376.782 347.181L303.037 308.751V231.898L376.782 192.781L450.527 231.898V295.202ZM319.677 240.568V290.578L367.551 265.874V215.169L319.677 240.568ZM355.222 289.544L327.997 304.358L376.782 329.773L404.328 315.413L355.222 289.544Z" fill="white"/>
</g>
<g filter="url(#filter0_d_537_110)">
<mask id="path-13-inside-1_537_110" fill="white">
<path fill-rule="evenodd" clip-rule="evenodd" d="M532.122 415.959H452.799V477.112V478.764H452.823C452.986 484.495 454 490.148 455.818 495.454C457.811 501.269 460.733 506.553 464.416 511.003C468.098 515.454 472.471 518.985 477.283 521.393C482.095 523.802 487.252 525.042 492.46 525.042C497.669 525.042 502.826 523.802 507.638 521.393C512.45 518.985 516.822 515.454 520.505 511.003C524.188 506.553 527.109 501.269 529.103 495.454C530.921 490.148 531.934 484.495 532.098 478.764H532.122V477.112V415.959Z"/>
</mask>
<path fill-rule="evenodd" clip-rule="evenodd" d="M532.122 415.959H452.799V477.112V478.764H452.823C452.986 484.495 454 490.148 455.818 495.454C457.811 501.269 460.733 506.553 464.416 511.003C468.098 515.454 472.471 518.985 477.283 521.393C482.095 523.802 487.252 525.042 492.46 525.042C497.669 525.042 502.826 523.802 507.638 521.393C512.45 518.985 516.822 515.454 520.505 511.003C524.188 506.553 527.109 501.269 529.103 495.454C530.921 490.148 531.934 484.495 532.098 478.764H532.122V477.112V415.959Z" fill="white"/>
<path d="M452.799 415.959V415.859H452.699V415.959H452.799ZM532.122 415.959H532.222V415.859H532.122V415.959ZM452.799 478.764H452.699V478.864H452.799V478.764ZM452.823 478.764L452.923 478.761L452.92 478.664H452.823V478.764ZM455.818 495.454L455.724 495.486L455.724 495.486L455.818 495.454ZM464.416 511.003L464.493 510.94L464.493 510.94L464.416 511.003ZM477.283 521.393L477.327 521.304L477.327 521.304L477.283 521.393ZM507.638 521.393L507.683 521.483L507.683 521.483L507.638 521.393ZM520.505 511.003L520.582 511.067L520.582 511.067L520.505 511.003ZM529.103 495.454L529.008 495.421L529.008 495.421L529.103 495.454ZM532.098 478.764V478.664H532.001L531.998 478.761L532.098 478.764ZM532.122 478.764V478.864H532.222V478.764H532.122ZM452.799 416.059H532.122V415.859H452.799V416.059ZM452.899 477.112V415.959H452.699V477.112H452.899ZM452.899 478.764V477.112H452.699V478.764H452.899ZM452.823 478.664H452.799V478.864H452.823V478.664ZM455.913 495.421C454.098 490.125 453.086 484.482 452.923 478.761L452.723 478.767C452.887 484.507 453.902 490.171 455.724 495.486L455.913 495.421ZM464.493 510.94C460.818 506.499 457.902 501.226 455.913 495.421L455.724 495.486C457.72 501.312 460.647 506.607 464.339 511.067L464.493 510.94ZM477.327 521.304C472.529 518.902 468.167 515.381 464.493 510.94L464.339 511.067C468.03 515.528 472.413 519.067 477.238 521.483L477.327 521.304ZM492.46 524.942C487.268 524.942 482.126 523.706 477.327 521.304L477.238 521.483C482.063 523.898 487.236 525.142 492.46 525.142V524.942ZM507.593 521.304C502.795 523.706 497.653 524.942 492.46 524.942V525.142C497.685 525.142 502.857 523.898 507.683 521.483L507.593 521.304ZM520.428 510.94C516.753 515.381 512.392 518.902 507.593 521.304L507.683 521.483C512.508 519.067 516.891 515.528 520.582 511.067L520.428 510.94ZM529.008 495.421C527.018 501.226 524.103 506.499 520.428 510.94L520.582 511.067C524.273 506.607 527.2 501.312 529.197 495.486L529.008 495.421ZM531.998 478.761C531.835 484.482 530.823 490.125 529.008 495.421L529.197 495.486C531.019 490.171 532.034 484.507 532.198 478.767L531.998 478.761ZM532.122 478.664H532.098V478.864H532.122V478.664ZM532.022 477.112V478.764H532.222V477.112H532.022ZM532.022 415.959V477.112H532.222V415.959H532.022Z" fill="#005E7B" fill-opacity="0.3" mask="url(#path-13-inside-1_537_110)"/>
<path d="M462.969 455.287C462.969 462.495 463.968 468.814 465.91 475.475C467.852 482.135 470.699 488.186 474.287 493.284C477.876 498.381 482.136 502.425 486.824 505.183C491.513 507.942 496.538 509.362 501.613 509.362V455.287H462.969Z" fill="#005E7B"/>
<rect x="501.613" y="428.249" width="22.373" height="27.0376" fill="#009758"/>
</g>
<g clip-path="url(#clip3_537_110)">
<path d="M347.625 285.543C414.157 257.01 444.264 181.524 414.87 116.94C385.476 52.3558 307.713 23.1306 241.181 51.6634C174.649 80.1962 144.542 155.682 173.936 220.266C203.329 284.85 281.092 314.075 347.625 285.543Z" fill="#F7931A"/>
<path d="M341.944 130.919C337.336 114.586 321.563 111.505 302.633 113.055L298.517 90.0119L284.076 92.4488L288.078 114.885C284.281 115.518 280.42 116.248 276.566 116.975L272.542 94.3906L258.097 96.8201L262.21 119.856C259.093 120.441 256.028 121.022 253.033 121.52L253.018 121.448L233.09 124.797L235.767 139.774C235.767 139.774 246.405 137.78 246.261 137.999C252.114 137.018 254.602 139.995 255.668 142.752L260.361 168.999C260.762 168.931 261.289 168.863 261.906 168.834L260.378 169.096L266.945 205.868C267.003 207.695 266.43 210.727 262.338 211.425C262.557 211.55 251.84 213.193 251.84 213.193L251.96 230.42L270.767 227.255C274.263 226.673 277.716 226.153 281.093 225.604L285.263 248.904L299.696 246.47L295.58 223.427C299.556 222.831 303.397 222.215 307.143 221.587L311.234 244.536L325.675 242.099L321.525 218.843C345.577 213.403 361.513 204.603 359.67 182.105C358.193 163.992 348.132 157.485 333.769 156.595C341.413 151.046 345.341 142.871 341.944 130.919ZM330.625 184.149C333.754 201.562 302.674 204.749 292.882 206.406L287.378 175.529C297.176 173.886 327.39 165.987 330.625 184.149ZM316.129 141.719C318.958 157.565 293.008 160.021 284.858 161.393L279.857 133.401C288.007 132.029 313.178 125.191 316.129 141.719Z" fill="white"/>
</g>
<rect y="201.002" width="573.435" height="99.458" rx="2" fill="#7E4C35"/>
<g clip-path="url(#clip4_537_110)">
<path d="M158.645 355.002C233.485 355.002 294.154 299.341 294.154 230.679C294.154 162.018 233.485 106.357 158.645 106.357C83.8053 106.357 23.1357 162.018 23.1357 230.679C23.1357 299.341 83.8053 355.002 158.645 355.002Z" fill="#627EEA"/>
<path d="M162.863 137.438V206.359L226.357 232.389L162.863 137.438Z" fill="white" fill-opacity="0.602"/>
<path d="M162.863 137.438L99.3597 232.389L162.863 206.359V137.438Z" fill="white"/>
<path d="M162.863 277.052V323.882L226.4 243.236L162.863 277.052Z" fill="white" fill-opacity="0.602"/>
<path d="M162.863 323.882V277.044L99.3597 243.236L162.863 323.882Z" fill="white"/>
<path d="M162.863 266.212L226.357 232.389L162.863 206.375V266.212Z" fill="white" fill-opacity="0.2"/>
<path d="M99.3597 232.389L162.863 266.212V206.375L99.3597 232.389Z" fill="white" fill-opacity="0.602"/>
</g>
<g clip-path="url(#clip5_537_110)">
<path d="M376.782 393.501C453.447 393.501 515.596 338.199 515.596 269.981C515.596 201.762 453.447 146.46 376.782 146.46C300.117 146.46 237.967 201.762 237.967 269.981C237.967 338.199 300.117 393.501 376.782 393.501Z" fill="#FAB431"/>
<path fill-rule="evenodd" clip-rule="evenodd" d="M450.527 295.202L414.218 275.817L418.383 260.462L433.886 268.607V240.568L384.087 214.15V275.138L372.244 280.967L437.643 315.475L376.782 347.181L303.037 308.751V231.898L376.782 192.781L450.527 231.898V295.202ZM319.677 240.568V290.578L367.551 265.874V215.169L319.677 240.568ZM355.222 289.544L327.997 304.358L376.782 329.773L404.328 315.413L355.222 289.544Z" fill="white"/>
</g>
<path d="M0 213.625C0 210.264 4.15571 208.687 6.38516 211.202L43.7343 253.329C48.482 258.684 55.296 261.75 62.4527 261.75H266.238H450.556H491.175C498.022 261.75 504.664 259.407 509.996 255.111L565.94 210.039C568.953 207.611 573.435 209.756 573.435 213.625V597.498C573.435 614.067 560.004 627.498 543.435 627.498H30C13.4314 627.498 0 614.067 0 597.498V213.625Z" fill="#7E4C35"/>
<g filter="url(#filter1_d_537_110)">
<mask id="path-30-inside-2_537_110" fill="white">
<path fill-rule="evenodd" clip-rule="evenodd" d="M532.122 415.959H452.799V477.112V478.764H452.823C452.986 484.495 454 490.148 455.818 495.454C457.811 501.269 460.733 506.553 464.416 511.003C468.098 515.454 472.471 518.985 477.283 521.393C482.095 523.802 487.252 525.042 492.46 525.042C497.669 525.042 502.826 523.802 507.638 521.393C512.45 518.985 516.822 515.454 520.505 511.003C524.188 506.553 527.109 501.269 529.103 495.454C530.921 490.148 531.934 484.495 532.098 478.764H532.122V477.112V415.959Z"/>
</mask>
<path fill-rule="evenodd" clip-rule="evenodd" d="M532.122 415.959H452.799V477.112V478.764H452.823C452.986 484.495 454 490.148 455.818 495.454C457.811 501.269 460.733 506.553 464.416 511.003C468.098 515.454 472.471 518.985 477.283 521.393C482.095 523.802 487.252 525.042 492.46 525.042C497.669 525.042 502.826 523.802 507.638 521.393C512.45 518.985 516.822 515.454 520.505 511.003C524.188 506.553 527.109 501.269 529.103 495.454C530.921 490.148 531.934 484.495 532.098 478.764H532.122V477.112V415.959Z" fill="white"/>
<path d="M452.799 415.959V415.859H452.699V415.959H452.799ZM532.122 415.959H532.222V415.859H532.122V415.959ZM452.799 478.764H452.699V478.864H452.799V478.764ZM452.823 478.764L452.923 478.761L452.92 478.664H452.823V478.764ZM455.818 495.454L455.724 495.486L455.724 495.486L455.818 495.454ZM464.416 511.003L464.493 510.94L464.493 510.94L464.416 511.003ZM477.283 521.393L477.327 521.304L477.327 521.304L477.283 521.393ZM507.638 521.393L507.683 521.483L507.683 521.483L507.638 521.393ZM520.505 511.003L520.582 511.067L520.582 511.067L520.505 511.003ZM529.103 495.454L529.008 495.421L529.008 495.421L529.103 495.454ZM532.098 478.764V478.664H532.001L531.998 478.761L532.098 478.764ZM532.122 478.764V478.864H532.222V478.764H532.122ZM452.799 416.059H532.122V415.859H452.799V416.059ZM452.899 477.112V415.959H452.699V477.112H452.899ZM452.899 478.764V477.112H452.699V478.764H452.899ZM452.823 478.664H452.799V478.864H452.823V478.664ZM455.913 495.421C454.098 490.125 453.086 484.482 452.923 478.761L452.723 478.767C452.887 484.507 453.902 490.171 455.724 495.486L455.913 495.421ZM464.493 510.94C460.818 506.499 457.902 501.226 455.913 495.421L455.724 495.486C457.72 501.312 460.647 506.607 464.339 511.067L464.493 510.94ZM477.327 521.304C472.529 518.902 468.167 515.381 464.493 510.94L464.339 511.067C468.03 515.528 472.413 519.067 477.238 521.483L477.327 521.304ZM492.46 524.942C487.268 524.942 482.126 523.706 477.327 521.304L477.238 521.483C482.063 523.898 487.236 525.142 492.46 525.142V524.942ZM507.593 521.304C502.795 523.706 497.653 524.942 492.46 524.942V525.142C497.685 525.142 502.857 523.898 507.683 521.483L507.593 521.304ZM520.428 510.94C516.753 515.381 512.392 518.902 507.593 521.304L507.683 521.483C512.508 519.067 516.891 515.528 520.582 511.067L520.428 510.94ZM529.008 495.421C527.018 501.226 524.103 506.499 520.428 510.94L520.582 511.067C524.273 506.607 527.2 501.312 529.197 495.486L529.008 495.421ZM531.998 478.761C531.835 484.482 530.823 490.125 529.008 495.421L529.197 495.486C531.019 490.171 532.034 484.507 532.198 478.767L531.998 478.761ZM532.122 478.664H532.098V478.864H532.122V478.664ZM532.022 477.112V478.764H532.222V477.112H532.022ZM532.022 415.959V477.112H532.222V415.959H532.022Z" fill="#005E7B" fill-opacity="0.3" mask="url(#path-30-inside-2_537_110)"/>
<path d="M462.969 455.287C462.969 462.495 463.968 468.814 465.91 475.475C467.852 482.135 470.699 488.186 474.287 493.284C477.876 498.381 482.136 502.425 486.824 505.183C491.513 507.942 496.538 509.362 501.613 509.362V455.287H462.969Z" fill="#005E7B"/>
<rect x="501.613" y="428.249" width="22.373" height="27.0376" fill="#009758"/>
</g>
<defs>
<filter id="filter0_d_537_110" x="448.799" y="415.959" width="87.3225" height="117.083" filterUnits="userSpaceOnUse" color-interpolation-filters="sRGB">
<feFlood flood-opacity="0" result="BackgroundImageFix"/>
<feColorMatrix in="SourceAlpha" type="matrix" values="0 0 0 0 0 0 0 0 0 0 0 0 0 0 0 0 0 0 127 0" result="hardAlpha"/>
<feOffset dy="4"/>
<feGaussianBlur stdDeviation="2"/>
<feComposite in2="hardAlpha" operator="out"/>
<feColorMatrix type="matrix" values="0 0 0 0 0 0 0 0 0 0 0 0 0 0 0 0 0 0 0.25 0"/>
<feBlend mode="normal" in2="BackgroundImageFix" result="effect1_dropShadow_537_110"/>
<feBlend mode="normal" in="SourceGraphic" in2="effect1_dropShadow_537_110" result="shape"/>
</filter>
<filter id="filter1_d_537_110" x="448.799" y="415.959" width="87.3225" height="117.083" filterUnits="userSpaceOnUse" color-interpolation-filters="sRGB">
<feFlood flood-opacity="0" result="BackgroundImageFix"/>
<feColorMatrix in="SourceAlpha" type="matrix" values="0 0 0 0 0 0 0 0 0 0 0 0 0 0 0 0 0 0 127 0" result="hardAlpha"/>
<feOffset dy="4"/>
<feGaussianBlur stdDeviation="2"/>
<feComposite in2="hardAlpha" operator="out"/>
<feColorMatrix type="matrix" values="0 0 0 0 0 0 0 0 0 0 0 0 0 0 0 0 0 0 0.25 0"/>
<feBlend mode="normal" in2="BackgroundImageFix" result="effect1_dropShadow_537_110"/>
<feBlend mode="normal" in="SourceGraphic" in2="effect1_dropShadow_537_110" result="shape"/>
</filter>
<clipPath id="clip0_537_110">
<rect width="262.156" height="256.962" fill="white" transform="matrix(0.91905 -0.394141 0.414237 0.910169 120.714 103.327)"/>
</clipPath>
<clipPath id="clip1_537_110">
<rect width="271.018" height="248.645" fill="white" transform="translate(23.1357 106.357)"/>
</clipPath>
<clipPath id="clip2_537_110">
<rect width="277.629" height="247.041" fill="white" transform="translate(237.967 146.46)"/>
</clipPath>
<clipPath id="clip3_537_110">
<rect width="262.156" height="256.962" fill="white" transform="matrix(0.91905 -0.394141 0.414237 0.910169 120.714 103.327)"/>
</clipPath>
<clipPath id="clip4_537_110">
<rect width="271.018" height="248.645" fill="white" transform="translate(23.1357 106.357)"/>
</clipPath>
<clipPath id="clip5_537_110">
<rect width="277.629" height="247.041" fill="white" transform="translate(237.967 146.46)"/>
</clipPath>
</defs>
</svg>
